# xmcd CD database file
#
# Track frame offsets:
#	150
#	48240
#	69462
#	92715
#	118297
#	143420
#	164617
#	186928
#	208223
#	232740
#	253836
#	279622
#	301012
#	322005
#
# Disc length: 4564 seconds
#
# Revision: 0
# Processed by: cddbd v1.5.2PL0 Copyright (c) Steve Scherf et al.
# Submitted via: CDex 1.70beta2
#
DISCID=cb11d20e
DTITLE=JOHN COLTRANE - Jazz Best
DYEAR=2012
DGENRE=Jazz
TTITLE0=Blue Train
TTITLE1=While My Lady Sleeps
TTITLE2=Anedac
TTITLE3=Pristine
TTITLE4=Russian Lullaby
TTITLE5=Velvet Scene
TTITLE6=Like Someone In Love
TTITLE7=Evidence
TTITLE8=Slow Dance
TTITLE9=C.T.A
TTITLE10=Lyresto
TTITLE11=Giant Steps
TTITLE12=Soft Lights And Sweet Music
TTITLE13=Epistrophy
EXTD=YEAR: 2012
EXTT0=
EXTT1=
EXTT2=
EXTT3=
EXTT4=
EXTT5=
EXTT6=
EXTT7=
EXTT8=
EXTT9=
EXTT10=
EXTT11=
EXTT12=
EXTT13=
PLAYORDER=
